<svg width="143" height="143" viewBox="0 0 143 143" fill="none" xmlns="http://www.w3.org/2000/svg">
<path d="M71.592 142.152C110.835 142.152 142.647 110.34 142.647 71.097C142.647 31.8544 110.835 0.0419998 71.592 0.0419998C32.3494 0.0419998 0.536987 31.8544 0.536987 71.097C0.536987 110.34 32.3494 142.152 71.592 142.152Z" fill="#C5142B"/>
<path d="M71.592 139.652C109.454 139.652 140.147 108.959 140.147 71.097C140.147 33.2351 109.454 2.542 71.592 2.542C33.7301 2.542 3.03699 33.2351 3.03699 71.097C3.03699 108.959 33.7301 139.652 71.592 139.652Z" stroke="white" stroke-width="5"/>
<mask id="mask0_1_167" style="mask-type:luminance" maskUnits="userSpaceOnUse" x="36" y="49" width="73" height="46">
<path d="M108.27 49.333H36.361V94.722H108.27V49.333Z" fill="white"/>
</mask>
<g mask="url(#mask0_1_167)">
<path d="M62.644 84.785C63.444 91.516 58.477 94.72 54.47 94.72C50.142 94.72 45.495 91.035 46.296 84.62H42.772C41.172 84.62 40.528 83.979 40.528 82.376V80.618C40.528 79.175 41.169 78.534 42.612 78.534H78.993V60.101C78.9615 59.4461 79.062 58.7916 79.2885 58.1763C79.5149 57.561 79.8627 56.9975 80.3112 56.5193C80.7597 56.041 81.2997 55.6578 81.8992 55.3924C82.4987 55.1269 83.1454 54.9846 83.801 54.974H94.544C96.944 54.974 98.55 56.736 98.87 59.141C99.192 61.866 99.67 64.59 100.154 67.475H101.916C102.781 67.472 103.614 67.8031 104.241 68.3993C104.868 68.9955 105.24 69.8108 105.281 70.675V78.534C105.442 78.534 105.442 78.692 105.603 78.692C106.563 78.692 107.687 78.534 108.003 79.655C108.3 80.9148 108.355 82.2197 108.164 83.5C108.003 84.3 107.201 84.463 106.402 84.463H102.875C103.175 85.8686 103.112 87.3275 102.691 88.7018C102.27 90.0761 101.506 91.3203 100.47 92.317C99.6836 93.0699 98.7536 93.6566 97.7354 94.042C96.7172 94.4274 95.6318 94.6036 94.544 94.56C93.3376 94.5241 92.1538 94.2246 91.0755 93.6826C89.9972 93.1406 89.0507 92.3691 88.3022 91.4224C87.5538 90.4756 87.0216 89.3765 86.7431 88.2023C86.4646 87.028 86.4464 85.807 86.69 84.625C78.836 84.786 70.662 84.786 62.649 84.786M97.269 67.476C96.944 64.751 96.625 62.024 96.144 59.3C96.1089 58.8583 95.9071 58.4465 95.5795 58.1482C95.2519 57.8499 94.823 57.6875 94.38 57.694H84.444C83.162 57.694 82.682 58.335 82.521 59.778V67.634C87.329 67.476 92.298 67.476 97.267 67.476M49.503 86.547C49.4913 87.1816 49.6077 87.812 49.8452 88.4007C50.0827 88.9893 50.4364 89.5239 50.8852 89.9727C51.334 90.4216 51.8687 90.7753 52.4573 91.0128C53.0459 91.2503 53.6763 91.3667 54.311 91.355C55.6268 91.3484 56.8869 90.8228 57.8173 89.8923C58.7478 88.9619 59.2734 87.7018 59.28 86.386C59.2763 85.112 58.7685 83.8912 57.8676 82.9903C56.9668 82.0894 55.746 81.5817 54.472 81.578C53.1561 81.5846 51.896 82.1102 50.9656 83.0406C50.0352 83.9711 49.5095 85.2312 49.503 86.547ZM90.213 86.547C90.1984 87.19 90.3116 87.8295 90.546 88.4285C90.7805 89.0274 91.1315 89.5738 91.5788 90.036C92.026 90.4983 92.5606 90.8671 93.1515 91.1212C93.7424 91.3752 94.3778 91.5094 95.021 91.516C96.3119 91.5184 97.553 91.0177 98.4808 90.12C99.4085 89.2223 99.9499 87.9983 99.99 86.708C100.005 86.065 99.8913 85.4255 99.6569 84.8265C99.4224 84.2276 99.0714 83.6812 98.6241 83.2189C98.1769 82.7567 97.6423 82.3879 97.0514 82.1338C96.4606 81.8798 95.8251 81.7456 95.182 81.739C94.5322 81.6971 93.881 81.7916 93.2699 82.0162C92.6588 82.2409 92.1015 82.5908 91.6336 83.0435C91.1657 83.4962 90.7976 84.0418 90.553 84.6451C90.3083 85.2484 90.1925 85.8963 90.213 86.547Z" fill="white"/>
<path d="M36.361 59.141C38.766 58.661 41.008 58.341 43.414 58.02C50.625 56.736 57.838 55.615 65.214 54.333C70.981 53.371 76.59 52.411 82.361 51.448C82.6455 51.3652 82.948 51.3665 83.2319 51.4517C83.5157 51.5368 83.7689 51.7022 83.961 51.928C84.5067 52.5567 85.0962 53.1462 85.725 53.692C85.725 53.853 85.725 53.853 85.564 54.011C82.839 54.494 80.273 54.811 77.549 55.295V75.81C77.549 76.77 77.23 76.931 76.428 76.931H42.612C41.649 76.931 41.169 76.77 41.012 75.649C39.5666 70.361 38.1236 65.072 36.683 59.782C36.5848 59.706 36.5049 59.609 36.4491 59.4981C36.3934 59.3871 36.3633 59.2651 36.361 59.141Z" fill="white"/>
<path d="M41.649 57.058L41.971 56.733C46.457 53.052 51.426 50.327 57.197 49.526C61.6793 48.8944 66.2382 49.9202 70.018 52.411C60.562 53.854 51.265 55.455 41.649 57.058Z" fill="white"/>
<path d="M54.4729 84.786C54.9809 84.7925 55.4663 84.9972 55.8256 85.3564C56.1848 85.7156 56.3895 86.201 56.3959 86.709C56.3976 87.1923 56.2173 87.6585 55.8908 88.0149C55.5643 88.3712 55.1156 88.5915 54.6339 88.632C54.1676 88.6283 53.7213 88.4416 53.3914 88.112C53.0614 87.7824 52.8741 87.3364 52.8699 86.87C52.7805 86.6239 52.7546 86.3592 52.7946 86.1004C52.8345 85.8416 52.9391 85.597 53.0985 85.3893C53.258 85.1816 53.4673 85.0174 53.707 84.912C53.9467 84.8065 54.2091 84.7632 54.4699 84.786" fill="white"/>
<path d="M96.785 86.548C96.7636 87.0369 96.5489 87.4973 96.1881 87.828C95.8273 88.1586 95.3499 88.3323 94.861 88.311C94.372 88.2896 93.9116 88.0749 93.581 87.7141C93.2503 87.3533 93.0766 86.8759 93.0979 86.387C93.1057 85.8793 93.3112 85.3947 93.6707 85.0362C94.0301 84.6776 94.5153 84.4734 95.023 84.467C95.4951 84.5913 95.9176 84.8581 96.2328 85.2309C96.5481 85.6038 96.7409 86.0647 96.785 86.551" fill="white"/>
</g>
</svg>
