<svg width="143" height="143" viewBox="0 0 143 143" fill="none" xmlns="http://www.w3.org/2000/svg">
<path d="M71.76 142.152C111.003 142.152 142.815 110.34 142.815 71.097C142.815 31.8544 111.003 0.0419998 71.76 0.0419998C32.5174 0.0419998 0.704956 31.8544 0.704956 71.097C0.704956 110.34 32.5174 142.152 71.76 142.152Z" fill="#C5142B"/>
<path d="M71.76 139.652C109.622 139.652 140.315 108.959 140.315 71.097C140.315 33.2351 109.622 2.542 71.76 2.542C33.8981 2.542 3.20496 33.2351 3.20496 71.097C3.20496 108.959 33.8981 139.652 71.76 139.652Z" stroke="white" stroke-width="5"/>
<mask id="mask0_1_168" style="mask-type:luminance" maskUnits="userSpaceOnUse" x="35" y="44" width="73" height="53">
<path d="M107.628 44.003H35.1071V96.721H107.628V44.003Z" fill="white"/>
</mask>
<g mask="url(#mask0_1_168)">
<path d="M96.4011 54.628C96.4013 56.7297 95.7782 58.7843 94.6107 60.5319C93.4431 62.2795 91.7836 63.6416 89.8419 64.446C87.9002 65.2503 85.7636 65.4609 83.7023 65.0509C81.6409 64.6409 79.7475 63.6289 78.2613 62.1427C76.7752 60.6566 75.7632 58.7631 75.3532 56.7018C74.9432 54.6405 75.1537 52.5038 75.9581 50.5622C76.7625 48.6205 78.1246 46.9609 79.8722 45.7934C81.6198 44.6259 83.6743 44.0028 85.7761 44.003C87.1714 44.0029 88.5531 44.2776 89.8422 44.8115C91.1314 45.3454 92.3027 46.1281 93.2894 47.1147C94.276 48.1014 95.0586 49.2727 95.5925 50.5618C96.1265 51.851 96.4012 53.2327 96.4011 54.628Z" fill="white"/>
<path d="M68.6401 78.849L71.4981 80.187V96.365H95.9511V83.704L98.4461 96.721L107.631 96.365L107.022 79.458C107.022 79.458 106.293 66.806 93.3981 67.048L82.3281 73.01L76.1211 65.347H68.7571" fill="white"/>
<path d="M39.522 45.982C44.4638 44.18 49.8838 44.1854 54.822 45.997V54.217C54.514 54.993 52.235 60.317 47.152 62.076C45.3935 61.5598 43.7887 60.6194 42.479 59.3374C41.1693 58.0554 40.1947 56.4711 39.641 54.724L39.522 45.982ZM51.666 48.704L50.017 47.834L46.187 55.082L44.647 53.343L43.247 54.582L46.572 58.335L51.666 48.704Z" fill="white"/>
<path d="M35.1071 78.031V69.031C35.1071 69.031 35.1071 65.745 40.3371 65.745C41.8079 65.7305 43.2481 66.1652 44.4653 66.9909C45.6825 67.8166 46.6188 68.9941 47.1491 70.366V76.449C47.1491 76.449 46.0571 81.189 39.9741 81.194C35.0071 81.197 35.1071 78.031 35.1071 78.031Z" fill="white"/>
<path d="M42.5461 65.091C43.7456 65.4638 44.856 66.0783 45.809 66.8966C46.7619 67.7149 47.5372 68.7197 48.0871 69.849L48.1221 70.369V76.995C47.6757 78.2287 46.9341 79.3344 45.9622 80.2157C44.9903 81.097 43.8175 81.7271 42.5461 82.051V84.934H67.1211V52.33H55.9711V54.33C55.9711 54.33 53.1311 61.214 47.1711 63.162C45.4748 62.6572 43.901 61.8079 42.5481 60.667L42.5461 65.091Z" fill="white"/>
</g>
</svg>
