<svg width="143" height="143" viewBox="0 0 143 143" fill="none" xmlns="http://www.w3.org/2000/svg">
<path d="M71.76 142.152C111.003 142.152 142.815 110.34 142.815 71.097C142.815 31.8544 111.003 0.0419998 71.76 0.0419998C32.5174 0.0419998 0.705017 31.8544 0.705017 71.097C0.705017 110.34 32.5174 142.152 71.76 142.152Z" fill="#C5142B"/>
<path d="M71.76 139.652C109.622 139.652 140.315 108.959 140.315 71.097C140.315 33.2351 109.622 2.542 71.76 2.542C33.8981 2.542 3.20502 33.2351 3.20502 71.097C3.20502 108.959 33.8981 139.652 71.76 139.652Z" stroke="white" stroke-width="5"/>
<mask id="mask0_1_164" style="mask-type:luminance" maskUnits="userSpaceOnUse" x="41" y="39" width="53" height="56">
<path d="M93.51 39.027H41.004V94.703H93.51V39.027Z" fill="white"/>
</mask>
<g mask="url(#mask0_1_164)">
<path d="M85.901 47.156C85.5843 45.8086 85.0054 44.5368 84.1972 43.4132C83.389 42.2896 82.3674 41.3362 81.1908 40.6074C80.0141 39.8786 78.7054 39.3887 77.3394 39.1656C75.9734 38.9426 74.5769 38.9908 73.2295 39.3075C71.8822 39.6242 70.6104 40.2031 69.4868 41.0113C68.3632 41.8195 67.4097 42.8411 66.6809 44.0178C65.9521 45.1944 65.4622 46.5031 65.2392 47.8691C65.0161 49.2351 65.0643 50.6316 65.381 51.979" fill="white"/>
<path d="M66.0941 54.902C66.4009 56.2593 66.9735 57.5424 67.7788 58.6773C68.5842 59.8122 69.6063 60.7763 70.7862 61.5141C71.9661 62.2519 73.2805 62.7486 74.6534 62.9758C76.0263 63.2029 77.4306 63.156 78.7852 62.8375C80.1399 62.5191 81.4181 61.9355 82.546 61.1205C83.674 60.3055 84.6293 59.2752 85.357 58.089C86.0847 56.9029 86.5702 55.5843 86.7856 54.2095C87.001 52.8347 86.942 51.4309 86.6121 50.079" fill="white"/>
<path d="M60.985 56.287C60.7302 56.2862 60.4845 56.1921 60.2944 56.0225C60.1043 55.8529 59.9829 55.6194 59.9532 55.3664C59.9235 55.1133 59.9876 54.8581 60.1333 54.6491C60.279 54.4401 60.4963 54.2917 60.744 54.232L88.178 47.697C88.4468 47.6337 88.7297 47.6799 88.9645 47.8252C89.1993 47.9705 89.3668 48.2032 89.43 48.472C89.4933 48.7408 89.4471 49.0237 89.3018 49.2585C89.1565 49.4933 88.9238 49.6607 88.655 49.724L61.223 56.261C61.1452 56.2803 61.0652 56.2897 60.985 56.289" fill="white"/>
<path d="M93.509 93.063L90.432 72.269C89.9581 69.9444 88.6727 67.8642 86.8056 66.4005C84.9385 64.9368 82.6115 64.1852 80.241 64.28C71.474 64.328 69.841 70.333 69.841 70.333L63.681 84.973L50.035 86.561C50.035 86.561 47.257 86.361 47.257 90.582C47.257 94.803 50.583 94.702 50.583 94.702H68.498C68.498 94.702 70.68 94.902 72.268 91.873L76.834 81.5L73.557 93.185L93.509 93.063Z" fill="white"/>
<path d="M46.77 85.369L41.004 76.686C41.651 75.844 56.289 69.786 56.289 69.786L63.42 81.042L62.235 83.612L52.212 84.612L53.712 79.069C53.7635 78.9477 53.7859 78.816 53.7774 78.6844C53.7688 78.5529 53.7296 78.4252 53.6628 78.3116C53.596 78.1979 53.5035 78.1015 53.3928 78.03C53.282 77.9586 53.1561 77.914 53.025 77.9C52.8834 77.8766 52.7384 77.8821 52.5989 77.9163C52.4595 77.9504 52.3284 78.0125 52.2136 78.0988C52.0988 78.1851 52.0027 78.2937 51.9311 78.4182C51.8595 78.5427 51.8139 78.6804 51.797 78.823L50.163 84.873L46.77 85.369Z" fill="white"/>
</g>
</svg>
