<svg width="143" height="143" viewBox="0 0 143 143" fill="none" xmlns="http://www.w3.org/2000/svg">
<path d="M71.591 142.152C110.834 142.152 142.646 110.34 142.646 71.097C142.646 31.8544 110.834 0.0419998 71.591 0.0419998C32.3484 0.0419998 0.536011 31.8544 0.536011 71.097C0.536011 110.34 32.3484 142.152 71.591 142.152Z" fill="#C5142B"/>
<path d="M71.591 139.652C109.453 139.652 140.146 108.959 140.146 71.097C140.146 33.2351 109.453 2.542 71.591 2.542C33.7291 2.542 3.03601 33.2351 3.03601 71.097C3.03601 108.959 33.7291 139.652 71.591 139.652Z" stroke="white" stroke-width="5"/>
<mask id="mask0_1_165" style="mask-type:luminance" maskUnits="userSpaceOnUse" x="58" y="37" width="40" height="57">
<path d="M97.072 37.494H58.342V93.269H97.072V37.494Z" fill="white"/>
</mask>
<g mask="url(#mask0_1_165)">
<path d="M93.473 47.726H80.33C79.972 47.6745 79.6479 47.4864 79.4255 47.2012C79.2031 46.916 79.0997 46.5557 79.137 46.196C79.0974 45.8358 79.1999 45.4744 79.4227 45.1887C79.6455 44.9029 79.971 44.7154 80.33 44.666H90.111L87.571 42.014C87.318 41.7202 87.165 41.3536 87.1341 40.9671C87.1032 40.5806 87.196 40.1943 87.399 39.864C87.4738 39.715 87.5838 39.5865 87.7195 39.4896C87.8551 39.3927 88.0124 39.3304 88.1776 39.308C88.3428 39.2857 88.511 39.3039 88.6675 39.3613C88.8241 39.4186 88.9643 39.5132 89.076 39.637L94.225 45.005C94.4248 45.2343 94.5637 45.5102 94.6291 45.8072C94.6944 46.1043 94.6841 46.413 94.599 46.705C94.5488 46.9749 94.4115 47.2209 94.2081 47.4054C94.0048 47.5898 93.7465 47.7024 93.473 47.726Z" fill="white"/>
<path d="M88.967 53.512C88.8012 53.5066 88.6388 53.4635 88.4922 53.3858C88.3456 53.3082 88.2186 53.1981 88.121 53.064C87.8936 52.7479 87.7713 52.3684 87.7713 51.979C87.7713 51.5896 87.8936 51.2101 88.121 50.894L92.629 45.11C92.7232 44.9728 92.8493 44.8607 92.9965 44.7832C93.1438 44.7057 93.3076 44.6652 93.474 44.6652C93.6404 44.6652 93.8043 44.7057 93.9515 44.7832C94.0987 44.8607 94.2248 44.9728 94.319 45.11C94.5464 45.4257 94.6687 45.8049 94.6687 46.194C94.6687 46.5831 94.5464 46.9623 94.319 47.278L89.809 53.063C89.7114 53.1971 89.5844 53.3072 89.4378 53.3848C89.2912 53.4625 89.1288 53.5056 88.963 53.511" fill="white"/>
<path d="M89.746 85.254V92.946H58.663V51.709H81.283L83.694 58.209L89.746 61.031V85.254ZM75.509 75.721L77.709 77.544L80.138 74.722L82.423 77.605L84.888 75.387L83.538 73.888L82.668 74.671L80.201 71.557L77.472 74.731L75.21 72.859L73.877 74.541L72.498 72.887L70.279 74.663L68.898 72.591L67.27 74.607L65.398 72.619L63.638 75.631L65.379 76.645L65.779 75.959L67.39 77.673L68.738 75.991L69.819 77.614L72.219 75.693L73.919 77.734L75.509 75.721ZM75.509 84.521L77.709 86.344L80.138 83.519L82.423 86.402L84.888 84.186L83.538 82.687L82.668 83.47L80.201 80.356L77.472 83.53L75.21 81.658L73.877 83.34L72.498 81.686L70.28 83.463L68.899 81.388L67.27 83.403L65.398 81.418L63.638 84.43L65.379 85.442L65.779 84.759L67.39 86.473L68.738 84.787L69.819 86.41L72.219 84.492L73.919 86.533L75.509 84.521Z" fill="white"/>
<path d="M89.746 85.254V92.946H58.663V51.709H81.283L83.694 58.209L89.746 61.031V85.254ZM75.509 75.721L77.709 77.544L80.138 74.722L82.423 77.605L84.888 75.387L83.538 73.888L82.668 74.671L80.201 71.557L77.472 74.731L75.21 72.859L73.877 74.541L72.498 72.887L70.279 74.663L68.898 72.591L67.27 74.607L65.398 72.619L63.638 75.631L65.379 76.645L65.779 75.959L67.39 77.673L68.738 75.991L69.819 77.614L72.219 75.693L73.919 77.734L75.509 75.721ZM75.509 84.521L77.709 86.344L80.138 83.519L82.423 86.402L84.888 84.186L83.538 82.687L82.668 83.47L80.201 80.356L77.472 83.53L75.21 81.658L73.877 83.34L72.498 81.686L70.28 83.463L68.899 81.388L67.27 83.403L65.398 81.418L63.638 84.43L65.379 85.442L65.779 84.759L67.39 86.473L68.738 84.787L69.819 86.41L72.219 84.492L73.919 86.533L75.509 84.521Z" fill="white"/>
</g>
</svg>
