<svg width="143" height="143" viewBox="0 0 143 143" fill="none" xmlns="http://www.w3.org/2000/svg">
<path d="M71.334 142.152C110.577 142.152 142.389 110.34 142.389 71.097C142.389 31.8544 110.577 0.0419998 71.334 0.0419998C32.0914 0.0419998 0.278992 31.8544 0.278992 71.097C0.278992 110.34 32.0914 142.152 71.334 142.152Z" fill="#C5142B"/>
<path d="M71.334 139.652C109.196 139.652 139.889 108.959 139.889 71.097C139.889 33.2351 109.196 2.542 71.334 2.542C33.4721 2.542 2.77899 33.2351 2.77899 71.097C2.77899 108.959 33.4721 139.652 71.334 139.652Z" stroke="white" stroke-width="5"/>
<mask id="mask0_1_166" style="mask-type:luminance" maskUnits="userSpaceOnUse" x="38" y="41" width="66" height="53">
<path d="M103.286 41.003H38.98V93.721H103.286V41.003Z" fill="white"/>
</mask>
<g mask="url(#mask0_1_166)">
<path d="M85.546 82.294C86.33 82.2945 87.0821 81.9838 87.6371 81.4301C88.1921 80.8764 88.5047 80.125 88.506 79.341C88.506 78.5573 88.8173 77.8057 89.3715 77.2515C89.9256 76.6973 90.6773 76.386 91.461 76.386C92.2447 76.386 92.9963 76.6973 93.5505 77.2515C94.1046 77.8057 94.416 78.5573 94.416 79.341C94.416 80.125 94.7274 80.8769 95.2818 81.4312C95.8361 81.9856 96.588 82.297 97.372 82.297C98.156 82.297 98.9078 81.9856 99.4622 81.4312C100.017 80.8769 100.328 80.125 100.328 79.341C100.33 78.558 100.642 77.8076 101.197 77.2546C101.751 76.7016 102.502 76.391 103.285 76.391" stroke="white" stroke-width="5" stroke-miterlimit="10"/>
<path d="M79.643 67.072C80.4256 67.0717 81.1762 67.3822 81.7299 67.9352C82.2837 68.4882 82.5952 69.2384 82.596 70.021C82.616 70.7901 82.9356 71.521 83.4866 72.0578C84.0377 72.5947 84.7766 72.8952 85.546 72.8952C86.3153 72.8952 87.0543 72.5947 87.6053 72.0578C88.1564 71.521 88.476 70.7901 88.496 70.021C88.496 69.236 88.8078 68.4831 89.3629 67.928C89.9181 67.3729 90.6709 67.061 91.456 67.061C92.241 67.061 92.9939 67.3729 93.549 67.928C94.1041 68.4831 94.416 69.236 94.416 70.021C94.416 70.8047 94.7273 71.5563 95.2815 72.1105C95.8357 72.6647 96.5873 72.976 97.371 72.976C98.1547 72.976 98.9063 72.6647 99.4605 72.1105C100.015 71.5563 100.326 70.8047 100.326 70.021C100.327 69.237 100.64 68.4856 101.195 67.9319C101.75 67.3782 102.502 67.0675 103.286 67.068" stroke="white" stroke-width="5" stroke-miterlimit="10"/>
<path d="M82.594 88.773C82.594 89.5567 82.9053 90.3083 83.4595 90.8625C84.0136 91.4167 84.7653 91.728 85.549 91.728C86.3327 91.728 87.0843 91.4167 87.6385 90.8625C88.1926 90.3083 88.504 89.5567 88.504 88.773C88.504 87.989 88.8154 87.2372 89.3698 86.6828C89.9241 86.1284 90.676 85.817 91.46 85.817C92.244 85.817 92.9958 86.1284 93.5502 86.6828C94.1045 87.2372 94.416 87.989 94.416 88.773C94.416 89.5567 94.7273 90.3083 95.2815 90.8625C95.8356 91.4167 96.5873 91.728 97.371 91.728C98.1547 91.728 98.9063 91.4167 99.4605 90.8625C100.015 90.3083 100.326 89.5567 100.326 88.773C100.328 87.9892 100.641 87.2381 101.195 86.6845C101.75 86.1309 102.502 85.82 103.286 85.82" stroke="white" stroke-width="5" stroke-miterlimit="10"/>
<path d="M67.81 85.822C68.1978 85.8219 68.5819 85.8982 68.9402 86.0465C69.2985 86.1949 69.6241 86.4124 69.8984 86.6866C70.1726 86.9609 70.3901 87.2865 70.5385 87.6448C70.6868 88.0031 70.7631 88.3872 70.763 88.775C70.7632 89.5573 71.0741 90.3075 71.6273 90.8607C72.1805 91.4139 72.9307 91.7247 73.713 91.725" stroke="white" stroke-width="5" stroke-miterlimit="10"/>
<path d="M70.526 87.184C70.4551 87.1838 70.3858 87.1626 70.3269 87.1231C70.268 87.0836 70.2222 87.0275 70.1951 86.9619C70.1681 86.8964 70.161 86.8243 70.1749 86.7547C70.1888 86.6852 70.223 86.6213 70.2731 86.5712C70.3233 86.521 70.3872 86.4868 70.4567 86.473C70.5262 86.4591 70.5983 86.4661 70.6639 86.4931C70.7295 86.5202 70.7855 86.566 70.8251 86.6249C70.8646 86.6838 70.8858 86.7531 70.886 86.824C70.886 86.9195 70.8481 87.0111 70.7805 87.0786C70.713 87.1461 70.6215 87.184 70.526 87.184Z" fill="white"/>
<path d="M77.351 43.362C78.8566 41.9058 80.8733 41.0981 82.9679 41.1126C85.0625 41.1271 87.0679 41.9624 88.5533 43.4393C90.0387 44.9162 90.8856 46.9167 90.9121 49.0112C90.9386 51.1057 90.1425 53.127 88.695 54.641" fill="white"/>
<path d="M87.615 56.333C86.2025 57.8704 84.2451 58.7947 82.1605 58.9086C80.0759 59.0226 78.0294 58.3171 76.4578 56.9429C74.8862 55.5686 73.914 53.6345 73.7489 51.5533C73.5838 49.4722 74.2387 47.4089 75.574 45.804" fill="white"/>
<path d="M90.368 60.153C90.0794 60.1522 89.8029 60.0372 89.599 59.833L74.466 44.701C74.365 44.6 74.2849 44.4801 74.2302 44.3482C74.1756 44.2162 74.1474 44.0748 74.1474 43.932C74.1474 43.6436 74.262 43.367 74.466 43.163C74.6699 42.9591 74.9465 42.8445 75.235 42.8445C75.5234 42.8445 75.8 42.9591 76.004 43.163L91.137 58.296C91.289 58.4482 91.3925 58.642 91.4344 58.8529C91.4764 59.0639 91.4548 59.2826 91.3725 59.4813C91.2902 59.68 91.1509 59.8499 90.9721 59.9694C90.7933 60.089 90.5831 60.1529 90.368 60.153Z" fill="white"/>
<path d="M81.111 81.402L75.057 73.661V59.146C75.057 59.146 74.228 51.405 58.471 51.266C42.714 51.127 38.98 58.536 38.98 58.536V62.88C38.98 62.88 39.117 67.442 49.07 75.872L50.18 91.079C50.18 91.079 50.456 93.429 53.637 93.705C56.818 93.981 57.921 90.805 57.921 90.805V72.493L52.809 63.844L66.63 66.744L67.874 76.421L76.58 85.964C76.58 85.964 79.424 87.622 81.113 85.548C81.5828 84.959 81.8387 84.2279 81.8387 83.4745C81.8387 82.7211 81.5828 81.99 81.113 81.401" fill="white"/>
<path d="M48.371 81.237L46.723 88.447C46.3649 89.3374 45.673 90.0526 44.7948 90.44C43.9167 90.8273 42.922 90.856 42.023 90.52C38.568 89.415 39.673 85.82 39.673 85.82C40.778 83.607 43.13 71.72 43.13 71.72C43.13 71.72 46.897 76.381 48.062 77.166L48.371 81.237Z" fill="white"/>
</g>
</svg>
